<svg xmlns="http://www.w3.org/2000/svg" xml:space="preserve" viewBox="0 0 122.4056 150.01868">
  <defs>
    <linearGradient id="b" x1="0" x2="1" y1="0" y2="0" gradientTransform="matrix(69.48178 0 0 -69.48178 -2.5106928 92.15242)" gradientUnits="userSpaceOnUse" spreadMethod="pad">
      <stop offset="0" stop-color="#ff0d57"/>
      <stop offset="1" stop-color="#112146"/>
    </linearGradient>
    <linearGradient id="d" x1="0" x2="1" y1="0" y2="0" gradientTransform="matrix(0 -95.62986 -95.62986 0 .0353888 95.629875)" gradientUnits="userSpaceOnUse" spreadMethod="pad">
      <stop offset="0" stop-color="#ff0d57"/>
      <stop offset="1" stop-color="#112146"/>
    </linearGradient>
    <linearGradient id="f" x1="0" x2="1" y1="0" y2="0" gradientTransform="matrix(43.54754 0 0 -43.54754 27.319412 21.394306)" gradientUnits="userSpaceOnUse" spreadMethod="pad">
      <stop offset="0" stop-color="#ff0d57"/>
      <stop offset=".880976" stop-color="#112146"/>
      <stop offset="1" stop-color="#112146"/>
    </linearGradient>
    <linearGradient id="h" x1="0" x2="1" y1="0" y2="0" gradientTransform="scale(85.1924 -85.1924) rotate(-9.501 -3.95484377 -2.22915624)" gradientUnits="userSpaceOnUse" spreadMethod="pad">
      <stop offset="0" stop-color="#ff0d57"/>
      <stop offset=".749596" stop-color="#112146"/>
      <stop offset="1" stop-color="#112146"/>
    </linearGradient>
    <linearGradient id="j" x1="0" x2="1" y1="0" y2="0" gradientTransform="matrix(0 -65.85263 -65.85263 0 77.539726 77.130295)" gradientUnits="userSpaceOnUse" spreadMethod="pad">
      <stop offset="0" stop-color="#ff0d57"/>
      <stop offset="1" stop-color="#112146"/>
    </linearGradient>
    <linearGradient id="l" x1="0" x2="1" y1="0" y2="0" gradientTransform="scale(61.24672 -61.24672) rotate(58.427 .82949503 -.62694177)" gradientUnits="userSpaceOnUse" spreadMethod="pad">
      <stop offset="0" stop-color="#ff0d57"/>
      <stop offset=".749596" stop-color="#112146"/>
      <stop offset="1" stop-color="#112146"/>
    </linearGradient>
    <clipPath id="a" clipPathUnits="userSpaceOnUse">
      <path d="M0 112.514v-2.763c0-4.995.871-9.753 2.415-14.121 4.933-13.966 16.939-23.84 30.994-23.84 5.61 0 10.894 1.573 15.533 4.352 3.314 1.985 6.297 4.584 8.836 7.665.508.616.997 1.251 1.469 1.905 1.413 1.961 2.657 4.085 3.707 6.343.015.043-7.375 1.881-7.912 1.977-4.573.819-8.53 1.291-12.819 1.558-5.986.373-11.976.642-17.843 2.423-9.117 2.767-17.414 7.782-24.262 14.388-.047.045-.118.113-.118.113Z"/>
    </clipPath>
    <clipPath id="c" clipPathUnits="userSpaceOnUse">
      <path d="M0 0h.071L0 .062Z"/>
    </clipPath>
    <clipPath id="e" clipPathUnits="userSpaceOnUse">
      <path d="m43.915 23.938-1.222-1.573c-.012-.017-.15-.194-.428-.553C28.256 3.772 2.131.319.188.085.113.076 0 .062 0 .062V0h42.214c7.992 0 15.223 1.394 21.574 3.929 6.79 11.552 6.625 25.677.672 38.86-1.576-10.505-8.332-17.991-20.545-18.851"/>
    </clipPath>
    <clipPath id="g" clipPathUnits="userSpaceOnUse">
      <path d="M59.247 85.712c-.472-.654-.961-1.289-1.469-1.905-2.539-3.081-5.522-5.68-8.836-7.665-4.639-2.779-9.923-4.352-15.533-4.352h8.122c8.656 0 14.831-3.039 18.643-8.101 1.717-2.279 2.918-4.994 3.676-8.009-.049.231-.088.43-.143.675 8.441-8.504 18.165-13.01 27.718-15.078.235 2.121.38 4.292.38 6.537 0 9.909-2.353 18.633-6.622 25.842-4.979 8.41-12.576 14.751-22.229 18.399-1.05-2.258-2.294-4.382-3.707-6.343"/>
    </clipPath>
    <clipPath id="i" clipPathUnits="userSpaceOnUse">
      <path d="M63.85 55.68c.193-.766.341-1.56.473-2.366.092-.515.169-.983.23-1.405.317-2.183.269-3.235.269-4.095 0-1.737-.121-3.416-.362-5.025 5.953-13.183 6.118-27.308-.672-38.86 15.569 6.218 25.662 19.515 27.637 37.348-9.553 2.068-19.33 6.65-27.77 15.154.055-.246.146-.52.195-.751"/>
    </clipPath>
    <clipPath id="k" clipPathUnits="userSpaceOnUse">
      <path d="M0 60.868c0-.797.059-1.577.103-2.361H.07V23.839H0V.062s.113.014.188.023C2.131.32 28.256 3.772 42.265 21.812c.278.359.416.536.428.553l1.222 1.573c-.285-.004-8.583-.024-17.888-.044v24.789c-.55.14-1.099.282-1.647.447-6.637 2.015-12.832 5.234-18.358 9.377-2.064 1.548-4.042 3.215-5.904 5.011-.048.045-.118.114-.118.114z"/>
    </clipPath>
  </defs>
  <g clip-path="url(#a)" transform="matrix(1.33333 0 0 -1.33333 0 150.01867)">
    <path fill="url(#b)" d="M0 112.514v-2.763c0-4.995.871-9.753 2.415-14.121 4.933-13.966 16.939-23.84 30.994-23.84 5.61 0 10.894 1.573 15.533 4.352 3.314 1.985 6.297 4.584 8.836 7.665.508.616.997 1.251 1.469 1.905 1.413 1.961 2.657 4.085 3.707 6.343.015.043-7.375 1.881-7.912 1.977-4.573.819-8.53 1.291-12.819 1.558-5.986.373-11.976.642-17.843 2.423-9.117 2.767-17.414 7.782-24.262 14.388-.047.045-.118.113-.118.113Z"/>
  </g>
  <g clip-path="url(#c)" transform="matrix(1.33333 0 0 -1.33333 0 150.01867)">
    <path fill="url(#d)" d="M0 0h.071L0 .062Z"/>
  </g>
  <g clip-path="url(#e)" transform="matrix(1.33333 0 0 -1.33333 0 150.01867)">
    <path fill="url(#f)" d="m43.915 23.938-1.222-1.573c-.012-.017-.15-.194-.428-.553C28.256 3.772 2.131.319.188.085.113.076 0 .062 0 .062V0h42.214c7.992 0 15.223 1.394 21.574 3.929 6.79 11.552 6.625 25.677.672 38.86-1.576-10.505-8.332-17.991-20.545-18.851"/>
  </g>
  <g clip-path="url(#g)" transform="matrix(1.33333 0 0 -1.33333 0 150.01867)">
    <path fill="url(#h)" d="M59.247 85.712c-.472-.654-.961-1.289-1.469-1.905-2.539-3.081-5.522-5.68-8.836-7.665-4.639-2.779-9.923-4.352-15.533-4.352h8.122c8.656 0 14.831-3.039 18.643-8.101 1.717-2.279 2.918-4.994 3.676-8.009-.049.231-.088.43-.143.675 8.441-8.504 18.165-13.01 27.718-15.078.235 2.121.38 4.292.38 6.537 0 9.909-2.353 18.633-6.622 25.842-4.979 8.41-12.576 14.751-22.229 18.399-1.05-2.258-2.294-4.382-3.707-6.343"/>
  </g>
  <g clip-path="url(#i)" transform="matrix(1.33333 0 0 -1.33333 0 150.01867)">
    <path fill="url(#j)" d="M63.85 55.68c.193-.766.341-1.56.473-2.366.092-.515.169-.983.23-1.405.317-2.183.269-3.235.269-4.095 0-1.737-.121-3.416-.362-5.025 5.953-13.183 6.118-27.308-.672-38.86 15.569 6.218 25.662 19.515 27.637 37.348-9.553 2.068-19.33 6.65-27.77 15.154.055-.246.146-.52.195-.751"/>
  </g>
  <g clip-path="url(#k)" transform="matrix(1.33333 0 0 -1.33333 0 150.01867)">
    <path fill="url(#l)" d="M0 60.868c0-.797.059-1.577.103-2.361H.07V23.839H0V.062s.113.014.188.023C2.131.32 28.256 3.772 42.265 21.812c.278.359.416.536.428.553l1.222 1.573c-.285-.004-8.583-.024-17.888-.044v24.789c-.55.14-1.099.282-1.647.447-6.637 2.015-12.832 5.234-18.358 9.377-2.064 1.548-4.042 3.215-5.904 5.011-.048.045-.118.114-.118.114z"/>
  </g>
</svg>